<svg width="167" height="22" viewBox="0 0 167 22" fill="none" xmlns="http://www.w3.org/2000/svg">
<path d="M20 11.0611C20 5.5045 15.5229 1 10 1C4.47715 1 0 5.5045 0 11.0611C0 16.0829 3.65686 20.2452 8.4375 21V13.9694H5.89845V11.0611H8.4375V8.84452C8.4375 6.32295 9.93045 4.93012 12.2146 4.93012C13.3087 4.93012 14.4531 5.12662 14.4531 5.12662V7.6026H13.1922C11.9499 7.6026 11.5625 8.37815 11.5625 9.1738V11.0611H14.336L13.8926 13.9694H11.5625V21C16.3432 20.2452 20 16.0829 20 11.0611Z" fill="#7A7E84"/>
<path d="M71.9491 2.50079C70.9904 2.91957 69.9667 3.20485 68.8888 3.33511C69.9872 2.67735 70.8322 1.64064 71.2319 0.403701C70.2017 1.00118 69.06 1.4361 67.8445 1.67832C66.8739 0.645922 65.4905 0 63.9544 0C61.0111 0 58.6246 2.37161 58.6246 5.29333C58.6246 5.71318 58.6734 6.11688 58.7622 6.50336C54.3316 6.29559 50.4046 4.18127 47.7766 0.985031C47.314 1.76229 47.0551 2.6655 47.0551 3.64946C47.0551 5.49034 47.9976 7.10837 49.4254 8.05895C48.5511 8.03096 47.7289 7.79197 47.0118 7.39581V7.46148C47.0118 10.029 48.8458 12.1702 51.2864 12.6579C50.839 12.7774 50.3667 12.842 49.8825 12.842C49.5424 12.842 49.2163 12.8097 48.8902 12.7494C49.5738 14.8519 51.5389 16.3849 53.8777 16.4279C52.0577 17.8479 49.7514 18.6941 47.2674 18.6941C46.845 18.6941 46.4236 18.6693 46 18.6219C48.3713 20.1226 51.1651 21 54.1864 21C63.9945 21 69.3514 12.9303 69.3514 5.94356C69.3514 5.71856 69.3514 5.49141 69.3351 5.26534C70.3762 4.52361 71.285 3.58594 72 2.52233L71.9491 2.50079Z" fill="#7A7E84"/>
<path d="M109 0C106.012 0 105.639 0.01375 104.465 0.066C103.294 0.121 102.496 0.30525 101.795 0.5775C101.072 0.858 100.458 1.23475 99.8462 1.84617C99.2348 2.45758 98.8571 3.07083 98.5775 3.795C98.3053 4.49625 98.1201 5.29375 98.066 6.46525C98.011 7.63858 98 8.01167 98 11C98 13.9883 98.0137 14.3614 98.066 15.5348C98.121 16.7053 98.3053 17.5038 98.5775 18.205C98.858 18.9273 99.2348 19.5424 99.8462 20.1538C100.458 20.7643 101.071 21.1429 101.795 21.4225C102.497 21.6938 103.295 21.8799 104.465 21.934C105.639 21.989 106.012 22 109 22C111.988 22 112.361 21.9862 113.535 21.934C114.705 21.879 115.504 21.6938 116.205 21.4225C116.927 21.142 117.542 20.7643 118.154 20.1538C118.764 19.5424 119.143 18.9301 119.423 18.205C119.694 17.5038 119.88 16.7053 119.934 15.5348C119.989 14.3614 120 13.9883 120 11C120 8.01167 119.986 7.63858 119.934 6.46525C119.879 5.29467 119.694 4.49533 119.423 3.795C119.142 3.07175 118.764 2.45758 118.154 1.84617C117.542 1.23475 116.93 0.857083 116.205 0.5775C115.504 0.30525 114.705 0.120083 113.535 0.066C112.361 0.011 111.988 0 109 0ZM109 1.98C111.936 1.98 112.286 1.99467 113.446 2.04508C114.518 2.0955 115.1 2.27333 115.487 2.4255C116.002 2.62442 116.367 2.86275 116.754 3.24683C117.138 3.63183 117.376 3.99758 117.575 4.51275C117.726 4.89958 117.905 5.48167 117.954 6.55417C118.006 7.71467 118.018 8.063 118.018 11C118.018 13.937 118.004 14.2863 117.95 15.4458C117.894 16.5183 117.716 17.1004 117.564 17.4872C117.359 18.0024 117.125 18.3673 116.74 18.7541C116.356 19.1382 115.985 19.3765 115.475 19.5754C115.09 19.7257 114.499 19.9054 113.427 19.954C112.259 20.0063 111.915 20.0182 108.973 20.0182C106.029 20.0182 105.685 20.0044 104.518 19.9503C103.445 19.8944 102.854 19.7157 102.469 19.5644C101.947 19.3591 101.589 19.1253 101.205 18.7403C100.819 18.3563 100.572 17.985 100.38 17.4753C100.228 17.0903 100.051 16.4991 99.9947 15.4266C99.9534 14.2716 99.9388 13.915 99.9388 10.9862C99.9388 8.05658 99.9534 7.69908 99.9947 6.53033C100.051 5.45783 100.228 4.8675 100.38 4.4825C100.572 3.96 100.819 3.6025 101.205 3.21658C101.589 2.8325 101.947 2.585 102.469 2.39342C102.854 2.24125 103.432 2.0625 104.505 2.0075C105.673 1.96625 106.017 1.9525 108.959 1.9525L109 1.98ZM109 5.3515C105.879 5.3515 103.352 7.8815 103.352 11C103.352 14.1213 105.882 16.6485 109 16.6485C112.121 16.6485 114.649 14.1185 114.649 11C114.649 7.87875 112.119 5.3515 109 5.3515ZM109 14.6667C106.974 14.6667 105.333 13.0258 105.333 11C105.333 8.97417 106.974 7.33333 109 7.33333C111.026 7.33333 112.667 8.97417 112.667 11C112.667 13.0258 111.026 14.6667 109 14.6667ZM116.192 5.12875C116.192 5.8575 115.6 6.44875 114.872 6.44875C114.143 6.44875 113.552 5.85658 113.552 5.12875C113.552 4.40092 114.144 3.80967 114.872 3.80967C115.599 3.80875 116.192 4.40092 116.192 5.12875Z" fill="#7A7E84"/>
<path d="M146 0V21H167V0H146ZM163.447 4.97344L162.322 6.05156C162.223 6.12656 162.177 6.24844 162.195 6.36563V14.3016C162.177 14.4234 162.223 14.5453 162.322 14.6156L163.423 15.6937V15.9328H157.892V15.7031L159.031 14.5969C159.144 14.4844 159.144 14.4516 159.144 14.2828V7.86563L155.975 15.9094H155.548L151.859 7.86563V13.2562C151.827 13.4812 151.906 13.7109 152.066 13.875L153.547 15.6703V15.9094H149.337V15.6703L150.819 13.875C150.978 13.7109 151.048 13.4812 151.011 13.2562V7.02188C151.03 6.84844 150.964 6.67969 150.833 6.5625L149.516 4.97344V4.73438H153.608L156.767 11.6719L159.547 4.73906H163.447V4.97344Z" fill="#7A7E84"/>
</svg>
