<svg width="143" height="36" viewBox="0 0 143 36" fill="none" xmlns="http://www.w3.org/2000/svg">
<path fill-rule="evenodd" clip-rule="evenodd" d="M26.6631 13.3316C26.6631 5.96882 20.6943 0 13.3316 0C5.96882 0 0 5.96882 0 13.3316C0 20.6943 5.96882 26.6631 13.3316 26.6631C13.3821 26.6631 13.4322 26.6616 13.4826 26.6612C12.7243 24.8009 12.5208 23.7482 12.525 22.6726C10.105 22.3872 8.33163 21.5532 7.04886 20.518C5.06744 18.9188 4.2583 16.8384 4.03424 15.5322C3.74348 13.8378 3.81213 12.3337 4.14183 11.0148C4.67555 8.87989 5.89047 7.24158 7.3742 6.06833C8.84452 4.90558 10.5791 4.20337 12.1707 3.93038C13.291 3.73815 14.3539 3.75575 15.2209 3.97254C15.574 4.0609 15.7889 4.4187 15.7007 4.77199C15.6123 5.12511 15.2545 5.33995 14.9012 5.25175C14.2081 5.07842 13.3343 5.06841 12.3927 5.22995C10.9943 5.46999 9.47354 6.08432 8.18916 7.09991C6.91834 8.10483 5.87804 9.50747 5.42121 11.3346C5.13383 12.484 5.076 13.8065 5.33414 15.3104C5.5212 16.4009 6.2016 18.1417 7.87432 19.4918C8.9731 20.3783 10.5019 21.0963 12.604 21.3567L12.6368 21.0117C12.7096 20.2517 12.7978 19.3341 12.8183 18.0774C12.8392 16.8036 12.372 15.6831 11.7131 14.7547C10.7263 13.3642 9.32138 12.4043 8.43631 11.9817C8.10726 11.8252 7.96769 11.4314 8.12422 11.1025C8.28075 10.7734 8.67458 10.6339 9.00347 10.7904C9.86705 11.2028 11.1597 12.0585 12.2271 13.2833C12.2769 12.1199 12.5478 10.8621 13.1749 9.6396C14.1273 7.78257 15.8895 6.01244 18.9238 4.7938C19.2613 4.65859 19.6448 4.82255 19.78 5.16L19.7806 5.16145C19.8205 5.24998 19.8607 5.3448 19.9006 5.44512C20.4528 6.83095 20.783 8.92852 20.1129 11.072C19.8981 11.7593 19.5814 12.451 19.1382 13.1245C19.6562 13.0027 20.2127 12.914 20.8108 12.8637C21.1865 12.8321 21.5761 12.8156 21.9795 12.8156C22.3439 12.8156 22.6395 13.1112 22.6395 13.4758C22.6395 13.5033 22.6377 13.5304 22.6345 13.5572C22.5597 15.3577 21.8323 18.1851 19.8 20.2173C18.4449 21.5726 16.5221 22.576 13.8486 22.6967C13.8574 23.6677 14.0672 24.6453 14.8053 26.4105C14.828 26.4649 14.8427 26.5208 14.8502 26.5767C21.4981 25.8229 26.6634 20.1812 26.6634 13.3317L26.6631 13.3316ZM13.5692 26.6599C13.6412 26.6586 13.7131 26.6568 13.7848 26.6544C13.7131 26.6568 13.6411 26.6587 13.5692 26.6599ZM13.8709 26.6511C13.9712 26.6471 14.0712 26.6421 14.1709 26.6358C14.0712 26.6419 13.9712 26.6471 13.8709 26.6511ZM14.235 26.6318C14.3132 26.6266 14.3914 26.6206 14.4693 26.614C14.3914 26.6206 14.3132 26.6264 14.235 26.6318ZM14.5752 26.6046C14.6529 26.5974 14.7305 26.5898 14.8077 26.5812C14.7303 26.5898 14.6529 26.5975 14.5752 26.6046ZM18.8544 10.6797C19.3674 9.03868 19.1884 7.43268 18.8046 6.27687C16.4781 7.33947 15.1022 8.76165 14.3454 10.2376C13.3256 12.2261 13.4112 14.3234 13.805 15.7619L13.8691 15.7328C16.8492 14.3702 18.2851 12.5004 18.8544 10.6799V10.6797ZM18.8663 19.2836C20.3977 17.7522 21.0731 15.6937 21.2648 14.1546C21.1474 14.1609 21.0321 14.169 20.9188 14.1783C18.1444 14.4114 16.4261 15.5705 15.4057 16.9914C14.3958 18.398 14.0499 20.0727 14.0389 21.3681C16.203 21.2148 17.7629 20.3869 18.8663 19.2834V19.2836Z" fill="white"/>
<path d="M52.4736 8.15689C52.4736 8.7591 52.3068 9.42044 51.9734 10.1411C51.64 10.8615 51.199 11.5553 50.6506 12.222C50.1022 12.8888 49.4837 13.4964 48.7953 14.0449C48.107 14.5934 47.4187 14.9967 46.7304 15.2549C47.3111 15.4269 47.8542 15.6366 48.3598 15.8839C48.8653 16.1314 49.3654 16.4593 49.86 16.8678C49.9891 16.9754 50.1343 17.1742 50.2957 17.4647C50.4571 17.7551 50.6075 18.0671 50.7474 18.4003C50.8871 18.7337 51 19.0617 51.0861 19.3842C51.1722 19.7068 51.2152 19.965 51.2152 20.1585C51.2152 20.7609 50.9624 21.2931 50.4569 21.7556C49.9515 22.2179 49.3761 22.5945 48.7309 22.8848C48.0855 23.1752 47.4565 23.3956 46.8435 23.5461C46.2304 23.6967 45.8058 23.7719 45.5691 23.7719H43.4719C43.2567 23.7719 42.9288 23.6805 42.4879 23.4976C42.0469 23.3148 41.5953 23.0998 41.1328 22.8523C40.6705 22.605 40.2563 22.363 39.8907 22.1264C39.525 21.8897 39.2992 21.7177 39.2131 21.6101C39.2775 21.481 39.3313 21.1961 39.3745 20.7551C39.4176 20.3142 39.4497 19.7656 39.4712 19.1096C39.4927 18.4535 39.5089 17.7222 39.5197 16.9156C39.5305 16.1091 39.5358 15.2864 39.5358 14.4475C39.5358 13.6086 39.5305 12.8504 39.5197 12.1729C39.509 11.4954 39.5035 10.8607 39.5035 10.2693C39.5035 9.67776 39.4982 9.10786 39.4874 8.55944C39.4766 8.01102 39.4712 7.44628 39.4712 6.86555C39.4712 6.34928 39.5197 5.99438 39.6164 5.80086C39.7132 5.60734 39.7508 5.51058 39.7294 5.51058C39.3853 5.51058 38.8582 5.63964 38.1484 5.89762C37.4386 6.15576 36.7341 6.47835 36.0352 6.86555C35.336 7.25276 34.723 7.6776 34.196 8.13993C33.6691 8.60241 33.4056 9.03791 33.4056 9.4466C33.4056 9.94123 33.4593 10.3499 33.567 10.6727C33.6744 10.9954 33.7284 11.1781 33.7284 11.2211C33.7284 11.5868 33.6531 11.8933 33.5026 12.1406C33.352 12.388 33.1154 12.5116 32.7928 12.5116C32.5346 12.5116 32.3303 12.4202 32.1797 12.2373C32.0292 12.0545 31.9163 11.8503 31.841 11.6243C31.7657 11.3985 31.7172 11.178 31.6958 10.963C31.6743 10.7478 31.6635 10.6081 31.6635 10.5436C31.6635 9.70474 31.9109 8.94115 32.4056 8.25284C32.9002 7.56453 33.5455 6.95682 34.3414 6.42989C35.1373 5.90295 36.046 5.45113 37.0677 5.07475C38.0894 4.69836 39.138 4.38643 40.2133 4.13912C41.2887 3.89164 42.3374 3.70895 43.3589 3.5907C44.3807 3.47245 45.2893 3.41317 46.0852 3.41317H46.3434C47.3113 3.43465 48.2199 3.62285 49.0696 3.97774C49.9192 4.33264 50.6236 4.86507 51.1829 5.57487C51.2258 5.61784 51.2528 5.65014 51.2636 5.67163C51.2743 5.69311 51.2906 5.7146 51.3121 5.73608C51.5917 6.05867 51.8067 6.31148 51.9573 6.49434C52.1078 6.6772 52.2207 6.84924 52.296 7.01062C52.3713 7.17199 52.4198 7.33854 52.4412 7.51074C52.4627 7.68277 52.4736 7.89794 52.4736 8.15608V8.15689ZM142.489 23.0949C142.489 23.267 142.446 23.3854 142.36 23.4498C142.274 23.5143 142.177 23.5574 142.069 23.5789C141.962 23.6004 141.849 23.6165 141.73 23.6274C141.612 23.638 141.532 23.6758 141.489 23.7403V28.8702C141.489 29.2789 141.483 29.7252 141.472 30.2091C141.462 30.693 141.413 31.1717 141.327 31.6448C141.241 32.1179 141.107 32.5589 140.924 32.9676C140.741 33.3763 140.478 33.7096 140.133 33.9679C140.112 33.9894 140.042 34.0378 139.924 34.1129C139.806 34.1882 139.676 34.2743 139.537 34.3711C139.397 34.4678 139.262 34.5594 139.133 34.6454C139.004 34.7313 138.918 34.7851 138.875 34.8067C138.574 35.0003 138.332 35.2261 138.149 35.4842C137.966 35.7424 137.735 35.8714 137.455 35.8714C137.348 35.8714 137.267 35.8661 137.214 35.8553C137.16 35.8445 137.106 35.8283 137.052 35.8068C136.998 35.7853 136.923 35.7584 136.826 35.7261C136.73 35.6939 136.595 35.6561 136.423 35.6131C135.455 35.4196 134.783 35.1345 134.406 34.7581C134.03 34.3817 133.842 33.7742 133.842 32.9352C133.842 32.0748 133.971 31.1822 134.229 30.2572C134.487 29.3322 134.842 28.4397 135.294 27.5794C135.745 26.719 136.283 25.9178 136.907 25.1757C137.531 24.4338 138.208 23.8046 138.939 23.2883V19.1586C138.832 19.5671 138.703 20.0404 138.552 20.5782C138.402 21.1159 138.214 21.6212 137.988 22.0945C137.762 22.5677 137.498 22.9657 137.197 23.2883C136.896 23.6109 136.541 23.7723 136.133 23.7723C135.767 23.7723 135.369 23.6432 134.939 23.3851C134.509 23.1269 134.122 22.8688 133.777 22.6108C133.519 22.3956 133.315 22.0569 133.164 21.5946C133.128 21.482 133.093 21.3676 133.061 21.2519C133.018 21.3755 132.972 21.5007 132.922 21.6269C132.675 22.2614 132.342 22.8261 131.922 23.3208C131.503 23.8154 130.97 24.0627 130.325 24.0627C129.637 24.0627 129.088 23.8207 128.679 23.3368C128.271 22.8528 127.959 22.2721 127.744 21.5946C127.529 20.9169 127.389 20.2071 127.324 19.4652C127.26 18.7231 127.228 18.1047 127.228 17.6099C127.228 17.0507 127.26 16.4861 127.324 15.9162C127.389 15.3461 127.432 14.7816 127.453 14.2223C127.453 14.0503 127.367 13.9427 127.195 13.8997C127.023 13.8567 126.862 13.8353 126.711 13.8353C126.453 13.8353 126.292 13.8674 126.227 13.932C126.163 13.9965 126.12 14.0718 126.098 14.1579L125.969 15.1902C125.883 15.8786 125.792 16.5399 125.695 17.1744C125.598 17.8089 125.491 18.3682 125.372 18.8521C125.269 19.2763 125.148 19.6262 125.011 19.9018C124.959 20.1737 124.859 20.4851 124.711 20.8365C124.539 21.245 124.318 21.6377 124.049 22.0141C123.781 22.3905 123.469 22.7077 123.114 22.9659C122.759 23.224 122.366 23.3529 121.936 23.3529C121.291 23.3529 120.726 23.1056 120.243 22.611C119.759 22.1163 119.463 21.4172 119.355 20.5137C119.226 20.858 119.076 21.2558 118.904 21.7075C118.732 22.1591 118.516 22.5787 118.258 22.9657C118 23.3527 117.704 23.6808 117.371 23.9496C117.038 24.2186 116.645 24.353 116.193 24.353C116.064 24.353 115.968 24.3422 115.903 24.3207C115.839 24.2992 115.769 24.2722 115.693 24.2401C115.618 24.2078 115.532 24.1809 115.435 24.1593C115.338 24.1378 115.204 24.1272 115.032 24.1272C114.516 24.1272 114.08 23.9605 113.725 23.627C113.37 23.2936 113.085 22.8688 112.87 22.3527C112.684 21.9065 112.543 21.4241 112.445 20.9058C112.371 21.0413 112.292 21.1739 112.209 21.3041C111.897 21.7881 111.504 22.186 111.031 22.4979C110.558 22.8098 109.977 22.9659 109.289 22.9659C108.751 22.9659 108.202 22.783 107.643 22.4174C107.084 22.0302 106.702 21.5248 106.498 20.9011C106.293 20.2772 106.191 19.675 106.191 19.0943C106.191 18.9222 106.202 18.6641 106.224 18.32C106.245 17.976 106.256 17.5564 106.256 17.0618V13.5128C106.256 13.3408 106.251 13.1579 106.24 12.9644C106.229 12.7709 106.202 12.588 106.159 12.416C106.138 12.3299 106.1 12.2331 106.046 12.1255C105.992 12.018 105.965 11.9427 105.965 11.8997C105.965 11.8138 106.019 11.7438 106.127 11.69C106.234 11.6364 106.353 11.5986 106.482 11.5771C106.611 11.5556 106.734 11.5448 106.853 11.5448C106.971 11.5448 107.03 11.5448 107.03 11.5448C107.095 11.5448 107.246 11.5501 107.482 11.561C107.719 11.5716 107.966 11.6094 108.224 11.6739C108.482 11.7383 108.713 11.8406 108.918 11.9803C109.122 12.1201 109.224 12.3191 109.224 12.5772C109.246 12.6417 109.208 12.7601 109.111 12.9321C109.015 13.1041 108.923 13.4052 108.837 13.8354C108.816 14.0075 108.794 14.1633 108.773 14.3032C108.751 14.443 108.73 14.599 108.708 14.7711C108.687 14.9431 108.665 15.1529 108.644 15.4002C108.622 15.6476 108.601 15.9648 108.579 16.3519V18.2877C108.579 18.632 108.59 18.9814 108.611 19.3363C108.633 19.6912 108.681 20.0138 108.757 20.3042C108.832 20.5946 108.956 20.8311 109.128 21.014C109.3 21.1969 109.525 21.2883 109.805 21.2883C110.214 21.2883 110.537 21.17 110.773 20.9334C111.01 20.6967 111.193 20.4924 111.322 20.3204C111.558 19.9978 111.741 19.5944 111.87 19.1106C111.999 18.6266 112.118 18.1265 112.225 17.6102L112.29 17.2876C112.292 17.2733 112.296 17.2592 112.299 17.2453C112.333 16.5622 112.389 15.8986 112.467 15.255C112.607 14.0936 112.838 13.0663 113.161 12.1738C113.483 11.2812 113.903 10.5714 114.419 10.0445C114.935 9.51752 115.559 9.25389 116.29 9.25389C116.72 9.25389 117.048 9.29153 117.274 9.36697C117.5 9.44224 117.71 9.52834 117.903 9.6251C118.097 9.72186 118.306 9.82396 118.532 9.93154C118.758 10.039 119.075 10.1251 119.484 10.1897C119.936 10.4478 120.253 10.7543 120.436 11.1092C120.618 11.464 120.737 11.8459 120.79 12.2545C120.844 12.6631 120.86 13.088 120.839 13.529C120.817 13.9698 120.839 14.4055 120.904 14.8355C120.904 14.857 120.952 14.8893 121.049 14.9323C121.146 14.9752 121.258 15.0237 121.388 15.0775C121.517 15.1313 121.629 15.2066 121.726 15.3033C121.823 15.4001 121.871 15.5237 121.871 15.6744V15.8034C121.656 16.3627 121.527 16.8575 121.484 17.2876C121.441 17.7178 121.42 18.2341 121.42 18.8363C121.42 19.1376 121.436 19.4655 121.468 19.8204C121.5 20.1753 121.554 20.5087 121.63 20.8205C121.705 21.1324 121.818 21.3905 121.968 21.5949C122.119 21.7992 122.312 21.9013 122.549 21.9013C122.807 21.9013 123.038 21.7723 123.243 21.5141C123.447 21.256 123.619 20.9602 123.759 20.627C123.852 20.4058 123.935 20.1821 124.009 19.9564C124.018 19.8808 124.038 19.7873 124.065 19.6752C124.238 18.9224 124.345 18.2986 124.388 17.8039C124.431 17.3093 124.463 16.8683 124.485 16.4811V16.2553C124.485 16.1478 124.49 16.0186 124.501 15.8682C124.512 15.7177 124.517 15.5348 124.517 15.3198V14.4809C124.517 14.2443 124.517 13.997 124.517 13.739C124.517 13.4808 124.496 13.2012 124.453 12.9001L124.356 10.9966C124.356 10.8675 124.41 10.7491 124.517 10.6417C124.625 10.5341 124.765 10.4373 124.937 10.3512C125.109 10.2653 125.292 10.2007 125.485 10.1577C125.679 10.1147 125.851 10.0932 126.001 10.0932C126.367 10.0932 126.55 10.3299 126.55 10.803V10.9644L126.517 11.6742V11.8677C126.517 12.0183 126.55 12.1097 126.614 12.1419C126.679 12.1742 126.808 12.2118 127.001 12.2548H127.098C127.27 12.2764 127.55 12.2979 127.937 12.3194C128.324 12.3409 128.711 12.3838 129.099 12.4485C129.486 12.5131 129.824 12.6152 130.115 12.7549C130.405 12.8946 130.55 13.0936 130.55 13.3518C130.55 13.4377 130.529 13.5615 130.486 13.7228C130.443 13.8842 130.389 14.0456 130.325 14.2068C130.26 14.3682 130.206 14.5132 130.163 14.6425C130.12 14.7715 130.099 14.8575 130.099 14.9006C129.712 16.3847 129.518 17.9333 129.518 19.5464C129.518 19.6755 129.529 19.9122 129.55 20.2562C129.572 20.6005 129.615 20.9554 129.679 21.3209C129.744 21.6866 129.841 22.0092 129.97 22.2889C130.099 22.5685 130.26 22.7084 130.454 22.7084C130.776 22.7084 131.067 22.5094 131.325 22.1115C131.583 21.7136 131.809 21.2511 132.002 20.724C132.196 20.1971 132.352 19.6647 132.47 19.1271C132.552 18.7544 132.616 18.4489 132.662 18.2107C132.653 17.9537 132.648 17.7537 132.648 17.6107C132.648 16.7719 132.658 15.8954 132.68 14.9812C132.701 14.0671 132.755 13.2229 132.841 12.4485C132.927 11.6742 133.057 11.0342 133.229 10.5287C133.401 10.0233 133.626 9.77065 133.906 9.77065C133.992 9.77065 134.164 9.79213 134.422 9.8351C134.68 9.87807 134.949 9.94802 135.229 10.0448C135.508 10.1415 135.756 10.2706 135.971 10.432C136.186 10.5934 136.294 10.7922 136.294 11.0287C136.294 11.0933 136.267 11.1418 136.213 11.1739C136.159 11.2062 136.111 11.2439 136.068 11.2868C135.939 11.3729 135.82 11.5396 135.713 11.787C135.605 12.0344 135.514 12.3893 135.439 12.8517C135.363 13.3141 135.304 13.9164 135.261 14.6585C135.218 15.4006 135.197 16.3092 135.197 17.3847C135.197 18.9978 135.256 20.1486 135.374 20.837C135.492 21.5253 135.734 21.8693 136.1 21.8693C136.487 21.8693 136.837 21.5789 137.149 20.9982C137.461 20.4174 137.745 19.6539 138.004 18.7074C138.262 17.761 138.498 16.6854 138.713 15.481C138.929 14.2766 139.122 13.0612 139.294 11.8353C139.509 11.8353 139.751 11.8461 140.02 11.8676C140.289 11.8891 140.547 11.932 140.794 11.9966C141.042 12.0613 141.251 12.1419 141.423 12.2386C141.595 12.3354 141.681 12.4698 141.681 12.642C141.681 12.7496 141.617 12.8248 141.488 12.8678V22.4178C141.725 22.4392 141.95 22.4877 142.165 22.563C142.381 22.6383 142.488 22.8156 142.488 23.0953L142.489 23.0949ZM138.94 24.6759C138.423 25.0846 137.961 25.6115 137.552 26.2569C137.144 26.9021 136.794 27.585 136.504 28.3055C136.214 29.026 135.993 29.7412 135.843 30.451C135.692 31.1608 135.617 31.7739 135.617 32.29C135.617 32.3976 135.622 32.5749 135.633 32.8224C135.644 33.0697 135.692 33.3117 135.778 33.5484C135.864 33.785 135.988 33.9947 136.149 34.1776C136.311 34.3604 136.553 34.4517 136.875 34.4517C137.348 34.4517 137.719 34.199 137.988 33.6934C138.257 33.188 138.461 32.5964 138.601 31.9189C138.741 31.2414 138.832 30.5638 138.875 29.8863C138.918 29.2088 138.94 28.7087 138.94 28.3859V28.2569V24.6756L138.94 24.6759ZM119.065 14.5452C119.065 14.3086 119.044 14.0289 119.001 13.7064C118.958 13.3838 118.883 13.0825 118.775 12.803C118.668 12.5234 118.506 12.2868 118.291 12.0932C118.076 11.8997 117.786 11.803 117.42 11.803C116.818 11.803 116.328 12.0771 115.952 12.6257C115.576 13.1741 115.28 13.8194 115.065 14.5615C114.85 15.3036 114.71 16.0671 114.645 16.8523C114.581 17.6374 114.548 18.2557 114.548 18.7076C114.548 19.0516 114.565 19.4658 114.597 19.9496C114.629 20.4336 114.688 20.8906 114.774 21.3208C114.86 21.7509 114.984 22.1167 115.146 22.4178C115.307 22.7189 115.517 22.8694 115.775 22.8694C116.398 22.8694 116.877 22.6274 117.21 22.1435C117.544 21.6595 117.797 21.0573 117.969 20.3368C118.141 19.6162 118.265 18.842 118.34 18.0138C118.415 17.1857 118.485 16.4275 118.549 15.7391C118.592 15.3736 118.689 15.1423 118.84 15.0455C118.99 14.9487 119.066 14.8788 119.066 14.8357V14.5454L119.065 14.5452ZM109.999 8.35057C109.999 8.50112 109.924 8.6247 109.773 8.72162C109.623 8.81838 109.456 8.88833 109.273 8.9313C109.09 8.97427 108.913 9.00658 108.741 9.02806C108.569 9.04955 108.461 9.06037 108.418 9.06037C107.967 9.06037 107.52 8.9313 107.079 8.67316C106.639 8.41502 106.235 8.00633 105.87 7.44709C105.827 7.38247 105.762 7.29654 105.676 7.18895C105.59 7.08137 105.547 7.00609 105.547 6.96312C105.547 6.8557 105.628 6.75878 105.789 6.67268C105.95 6.58674 106.133 6.50064 106.337 6.41454C106.542 6.3286 106.735 6.26399 106.918 6.22102C107.101 6.17789 107.224 6.1564 107.289 6.1564C107.719 6.1564 108.144 6.26399 108.563 6.47916C108.983 6.69432 109.322 7.09219 109.58 7.67292C109.623 7.73737 109.703 7.85045 109.822 8.01166C109.94 8.17304 109.999 8.28579 109.999 8.35041L109.999 8.35057ZM104.192 15.8033C103.998 16.7497 103.654 17.7177 103.159 18.7071C102.665 19.6965 102.073 20.5892 101.385 21.3849C100.697 22.1808 99.933 22.8315 99.0942 23.3369C98.2553 23.8424 97.3841 24.0952 96.4808 24.0952H96.4164C95.8571 24.0952 95.3087 23.9608 94.7709 23.6918C94.2332 23.4229 93.5986 23.1379 92.8674 22.8368C92.7814 22.7938 92.6147 22.7454 92.3672 22.6916C92.1199 22.6379 91.8618 22.5572 91.593 22.4496C91.324 22.3422 91.0767 22.1969 90.8509 22.0141C90.6251 21.8312 90.4798 21.5892 90.4154 21.2881V9.67324C90.4154 9.04938 90.3831 8.46882 90.3186 7.9309C90.2542 7.39314 90.0928 7.00593 89.8347 6.76944H90.1251C90.5982 6.76944 91.0875 6.69416 91.5932 6.54361C92.0986 6.39306 92.5126 6.31778 92.8354 6.31778C93.0504 6.31778 93.2171 6.36624 93.3353 6.463C93.4536 6.55976 93.5129 6.73729 93.5129 6.99543V21.03C93.9216 21.1591 94.228 21.2828 94.4323 21.401C94.6367 21.5193 94.8087 21.6214 94.9486 21.7075C95.0883 21.7934 95.2229 21.8634 95.352 21.9172C95.481 21.971 95.6747 21.9979 95.9327 21.9979C96.9436 21.9979 97.8093 21.7183 98.5299 21.1591C99.2504 20.5998 99.8473 19.8469 100.321 18.9006C100.794 17.9542 101.143 16.8626 101.369 15.6257C101.595 14.389 101.708 13.1038 101.708 11.7703C101.708 10.7165 101.584 9.7377 101.337 8.83438C101.089 7.93106 100.67 7.14065 100.079 6.463C99.487 5.78551 98.6913 5.24775 97.691 4.84989C96.691 4.45186 95.4273 4.24218 93.9001 4.2207H93.6743C90.6414 4.2207 88.3884 4.64005 86.915 5.47891C85.4416 6.31778 84.7049 7.44709 84.7049 8.86668C84.7049 9.14631 84.7533 9.38296 84.8501 9.57648C84.9468 9.77 85.0491 9.96353 85.1565 10.1572C85.2641 10.3507 85.3717 10.5551 85.4793 10.7702C85.5867 10.9854 85.6513 11.2542 85.6728 11.5768C85.6513 11.6198 85.5707 11.7488 85.431 11.964C85.2912 12.1792 85.1782 12.2974 85.0922 12.3189C85.0493 12.3404 84.9525 12.3511 84.8018 12.3511C84.5651 12.3511 84.291 12.2811 83.9791 12.1414C83.6671 12.0016 83.3715 11.808 83.0917 11.5606C82.8121 11.3132 82.581 11.0176 82.3981 10.6733C82.2152 10.3292 82.1238 9.95286 82.1238 9.54417C82.1238 8.51179 82.5002 7.57083 83.2531 6.72114C84.0059 5.87161 84.99 5.14017 86.2052 4.52729C87.4205 3.91426 88.7755 3.44112 90.2705 3.1077C91.7654 2.77429 93.2549 2.60758 94.7389 2.60758C95.6423 2.60758 96.5457 2.68835 97.4491 2.84956C98.3524 3.01094 99.2074 3.27974 100.014 3.65612C100.821 4.0325 101.547 4.51647 102.192 5.10802C102.837 5.69957 103.353 6.42536 103.741 7.28588C104.085 7.97403 104.321 8.7108 104.45 9.49587C104.579 10.2809 104.644 11.0822 104.644 11.8994C104.644 13.1899 104.493 14.4913 104.192 15.8033H104.192ZM85.1564 23.0949C85.1564 23.267 85.1134 23.3854 85.0273 23.4498C84.9412 23.5143 84.8444 23.5574 84.7369 23.5789C84.6294 23.6004 84.5163 23.6165 84.3981 23.6274C84.2799 23.638 84.1992 23.6758 84.1563 23.7403V28.8702C84.1563 29.2789 84.1509 29.7252 84.1401 30.2091C84.1295 30.693 84.081 31.1717 83.9949 31.6448C83.909 32.1179 83.7746 32.5589 83.5915 32.9676C83.4087 33.3763 83.1452 33.7096 82.8011 33.9679C82.7797 33.9894 82.7097 34.0378 82.5915 34.1129C82.4732 34.1882 82.344 34.2743 82.2043 34.3711C82.0645 34.4678 81.9301 34.5594 81.8009 34.6454C81.6718 34.7313 81.5857 34.7851 81.5428 34.8067C81.2417 35.0003 80.9997 35.2261 80.8168 35.4842C80.6339 35.7424 80.4028 35.8714 80.1232 35.8714C80.0157 35.8714 79.935 35.8661 79.8812 35.8553C79.8276 35.8445 79.7738 35.8283 79.7198 35.8068C79.666 35.7853 79.5907 35.7584 79.494 35.7261C79.3972 35.6939 79.2627 35.6561 79.0906 35.6131C78.1227 35.4196 77.4505 35.1345 77.0741 34.7581C76.6978 34.3817 76.5096 33.7742 76.5096 32.9352C76.5096 32.0748 76.6386 31.1822 76.8966 30.2572C77.1548 29.3322 77.5096 28.4397 77.9613 27.5794C78.413 26.719 78.9507 25.9178 79.5744 25.1757C80.1983 24.4338 80.8758 23.8046 81.6071 23.2883V19.1586C81.4996 19.5671 81.3704 20.0404 81.22 20.5782C81.0695 21.1159 80.8813 21.6212 80.6554 22.0945C80.4296 22.5677 80.166 22.9657 79.8649 23.2883C79.5638 23.6109 79.2089 23.7723 78.8002 23.7723C78.4345 23.7723 78.0366 23.6432 77.6064 23.3851C77.1762 23.1269 76.7892 22.8688 76.445 22.6108C76.1868 22.3956 75.9825 22.0569 75.8319 21.5946C75.6814 21.1321 75.5685 20.6428 75.4932 20.1265C75.4179 19.6102 75.3694 19.1154 75.3479 18.6423C75.3265 18.1692 75.3156 17.8251 75.3156 17.6099C75.3156 16.7711 75.3265 15.8945 75.3479 14.9804C75.3694 14.0663 75.4232 13.2221 75.5093 12.4477C75.5953 11.6734 75.7245 11.0334 75.8965 10.5279C76.0686 10.0225 76.2944 9.76984 76.574 9.76984C76.66 9.76984 76.8322 9.79133 77.0903 9.8343C77.3484 9.87726 77.6172 9.94721 77.8969 10.044C78.1765 10.1407 78.4238 10.2698 78.639 10.4312C78.8541 10.5926 78.9616 10.7914 78.9616 11.0279C78.9616 11.0925 78.9346 11.141 78.8809 11.1731C78.8271 11.2054 78.7787 11.2431 78.7357 11.286C78.6067 11.3721 78.4882 11.5388 78.3808 11.7862C78.2732 12.0336 78.1818 12.3885 78.1065 12.8509C78.0313 13.3133 77.9721 13.9155 77.9292 14.6577C77.8862 15.3998 77.8647 16.3084 77.8647 17.3839C77.8647 18.997 77.9238 20.1478 78.0421 20.8361C78.1603 21.5245 78.4023 21.8685 78.768 21.8685C79.1552 21.8685 79.5048 21.5781 79.8166 20.9974C80.1285 20.4166 80.4135 19.653 80.6716 18.7066C80.9297 17.7601 81.1662 16.6846 81.3814 15.4802C81.5966 14.2758 81.7901 13.0604 81.9621 11.8345C82.1773 11.8345 82.4193 11.8453 82.6881 11.8668C82.9569 11.8882 83.215 11.9312 83.4623 11.9958C83.7096 12.0604 83.9195 12.1411 84.0913 12.2378C84.2634 12.3346 84.3495 12.469 84.3495 12.6412C84.3495 12.7488 84.285 12.824 84.156 12.867V22.417C84.3926 22.4384 84.6183 22.4869 84.8335 22.5622C85.0486 22.6375 85.156 22.8148 85.156 23.0944L85.1564 23.0949ZM81.6074 24.6759C81.0911 25.0846 80.6288 25.6115 80.2201 26.2569C79.8114 26.9021 79.4618 27.585 79.1716 28.3055C78.8813 29.026 78.6608 29.7412 78.5102 30.451C78.3597 31.1608 78.2844 31.7739 78.2844 32.29C78.2844 32.3976 78.2897 32.5749 78.3005 32.8224C78.3114 33.0697 78.3597 33.3117 78.4458 33.5484C78.5317 33.785 78.6554 33.9947 78.8168 34.1776C78.9782 34.3604 79.2202 34.4517 79.5428 34.4517C80.0159 34.4517 80.387 34.199 80.6559 33.6934C80.9247 33.188 81.1291 32.5964 81.269 31.9189C81.4087 31.2414 81.5001 30.5638 81.5431 29.8863C81.5861 29.2088 81.6075 28.7087 81.6075 28.3859V28.2569V24.6756L81.6074 24.6759ZM74.0577 18.191C74.0577 18.7717 74.0093 19.3901 73.9125 20.0461C73.8158 20.7021 73.6221 21.3043 73.3318 21.8529C73.0415 22.4013 72.6328 22.8584 72.1057 23.224C71.5788 23.5896 70.8852 23.7724 70.0248 23.7724C69.2505 23.7724 68.686 23.7133 68.3311 23.5949C67.9762 23.4766 67.6804 23.3422 67.4437 23.1915C67.4437 23.1915 67.3901 23.2185 67.2824 23.2723C67.1749 23.3259 67.0565 23.3852 66.9275 23.4497C66.7984 23.5141 66.6748 23.5734 66.5564 23.6272C66.4382 23.6808 66.3467 23.7078 66.2821 23.7078C66.1316 23.7078 65.9972 23.6542 65.8788 23.5464C65.7605 23.439 65.6691 23.2185 65.6046 22.8851C65.5402 22.5517 65.4917 22.0894 65.4594 21.4978C65.4457 21.2452 65.4349 20.9583 65.4269 20.6371C65.4019 20.7021 65.3751 20.7685 65.3465 20.8365C65.1745 21.245 64.954 21.6377 64.6852 22.0141C64.4162 22.3905 64.1044 22.7077 63.7495 22.9659C63.3946 23.224 63.0021 23.3529 62.5719 23.3529C61.9266 23.3529 61.362 23.1056 60.8782 22.611C60.3942 22.1163 60.0985 21.4172 59.9909 20.5137C59.8618 20.858 59.7113 21.2558 59.5392 21.7075C59.3672 22.1591 59.1522 22.5787 58.894 22.9657C58.6359 23.3527 58.3401 23.6808 58.0067 23.9496C57.6733 24.2186 57.2808 24.353 56.8291 24.353C56.7 24.353 56.6033 24.3422 56.5387 24.3207C56.4742 24.2992 56.4043 24.2722 56.329 24.2401C56.2537 24.2078 56.1676 24.1809 56.0708 24.1593C55.9741 24.1378 55.8397 24.1272 55.6675 24.1272C55.1512 24.1272 54.7157 23.9605 54.3608 23.627C54.0059 23.2936 53.721 22.8688 53.5058 22.3527C53.2906 21.8364 53.1347 21.2718 53.038 20.6588C52.9412 20.0457 52.8927 19.4703 52.8927 18.9327C52.8927 17.6422 52.9627 16.4163 53.1024 15.2547C53.2422 14.0932 53.4735 13.066 53.7961 12.1735C54.1187 11.2809 54.5382 10.5711 55.0543 10.0441C55.5706 9.5172 56.1943 9.25357 56.9255 9.25357C57.3557 9.25357 57.6838 9.2912 57.9095 9.36664C58.1353 9.44192 58.3451 9.52802 58.5387 9.62478C58.7322 9.72154 58.942 9.82363 59.1677 9.93122C59.3935 10.0386 59.7108 10.1247 60.1195 10.1894C60.5711 10.4475 60.8884 10.7539 61.0711 11.1088C61.2539 11.4637 61.3723 11.8456 61.426 12.2541C61.4798 12.6628 61.4959 13.0877 61.4744 13.5287C61.453 13.9695 61.4744 14.4052 61.5391 14.8352C61.5391 14.8567 61.5875 14.889 61.6843 14.9319C61.781 14.9749 61.894 15.0234 62.023 15.0772C62.1521 15.131 62.265 15.2062 62.3618 15.303C62.4585 15.3998 62.507 15.5233 62.507 15.674V15.8031C62.2918 16.3624 62.1628 16.8572 62.1198 17.2873C62.0768 17.7175 62.0553 18.2338 62.0553 18.836C62.0553 19.1373 62.0715 19.4652 62.1038 19.8201C62.1359 20.175 62.1897 20.5084 62.2652 20.8202C62.3404 21.1321 62.4534 21.3902 62.6039 21.5946C62.7545 21.7989 62.948 21.901 63.1846 21.901C63.4428 21.901 63.6739 21.7719 63.8783 21.5138C64.0826 21.2557 64.2547 20.9599 64.3946 20.6266C64.5343 20.2932 64.6527 19.9545 64.7495 19.6102C64.8462 19.2662 64.9053 19.008 64.9268 18.836C64.97 18.5779 65.0774 18.4489 65.2496 18.4489C65.3051 18.4489 65.3593 18.4648 65.4121 18.4964C65.4171 17.0216 65.4383 15.113 65.4754 12.7706C65.5185 10.0604 65.5615 6.56526 65.6045 2.28483C65.6045 2.06966 65.583 1.94075 65.54 1.89762C65.4971 1.85465 65.4754 1.81168 65.4754 1.76855C65.4754 1.63948 65.5991 1.55338 65.8465 1.51042C66.0938 1.46745 66.2498 1.4458 66.3143 1.4458C66.3787 1.4458 66.5509 1.46745 66.8305 1.51042C67.1102 1.55338 67.3951 1.61784 67.6856 1.70394C67.976 1.78988 68.2395 1.90279 68.4761 2.04268C68.7128 2.18241 68.831 2.34912 68.831 2.5428C68.831 2.5428 68.8094 2.60726 68.7664 2.73633C68.7234 2.86539 68.6697 3.02128 68.605 3.20414C68.5406 3.387 68.4813 3.55904 68.4277 3.72041C68.3739 3.88179 68.3469 3.99471 68.3469 4.05916C68.2395 4.87638 68.1587 5.58101 68.1049 6.1724C68.0513 6.76395 68.0082 7.38764 67.9758 8.04365C67.9435 8.69982 67.9112 9.45791 67.8791 10.3183C67.8468 11.1786 67.7983 12.2971 67.7339 13.6737C67.8413 13.4587 67.9435 13.1844 68.0403 12.851C68.1371 12.5176 68.2608 12.1897 68.4114 11.8671C68.5619 11.5443 68.7501 11.2647 68.9759 11.0282C69.2018 10.7916 69.5084 10.6733 69.8956 10.6733C70.0676 10.6733 70.3096 10.7379 70.6215 10.8668C70.9334 10.9959 71.1753 11.082 71.3475 11.125C71.9498 11.2541 72.4283 11.5928 72.7832 12.1412C73.1381 12.6896 73.4124 13.3242 73.6061 14.0448C73.7996 14.7652 73.9234 15.502 73.9771 16.2548C74.0309 17.0077 74.0579 17.6529 74.0579 18.1906L74.0577 18.191ZM71.7025 17.4166C71.7025 17.3521 71.6972 17.1799 71.6864 16.9003C71.6756 16.6207 71.6541 16.2981 71.6219 15.9323C71.5896 15.5666 71.5412 15.1741 71.4767 14.7547C71.4121 14.3354 71.3207 13.9535 71.2024 13.6093C71.0842 13.2652 70.9389 12.9802 70.7669 12.7543C70.5949 12.5284 70.3797 12.4155 70.1216 12.4155C69.7775 12.4155 69.4547 12.7166 69.1536 13.3188C68.8525 13.9212 68.5891 14.647 68.3631 15.4967C68.1372 16.3462 67.9597 17.2227 67.8308 18.1262C67.7017 19.0295 67.6373 19.7716 67.6373 20.3523C67.6373 20.589 67.6426 20.8416 67.6534 21.1106C67.6642 21.3796 67.6911 21.6322 67.7342 21.8689C67.9923 21.9763 68.1859 22.0679 68.3149 22.143C68.444 22.2183 68.5516 22.2829 68.6377 22.3365C68.7236 22.3903 68.815 22.4279 68.9118 22.4494C69.0086 22.4711 69.1323 22.4817 69.2829 22.4817C69.8421 22.4817 70.2831 22.2612 70.6057 21.8204C70.9283 21.3796 71.1703 20.8739 71.3316 20.304C71.493 19.734 71.5951 19.1694 71.6381 18.6103C71.681 18.0511 71.7025 17.653 71.7025 17.4166ZM59.7004 14.5452C59.7004 14.3086 59.6789 14.0289 59.636 13.7064C59.593 13.3838 59.5177 13.0825 59.4102 12.803C59.3026 12.5234 59.1412 12.2868 58.9262 12.0932C58.711 11.8997 58.4207 11.803 58.055 11.803C57.4526 11.803 56.9633 12.0771 56.587 12.6257C56.2106 13.1741 55.9148 13.8194 55.6998 14.5615C55.4846 15.3036 55.3449 16.0671 55.2803 16.8523C55.2158 17.6374 55.1835 18.2557 55.1835 18.7076C55.1835 19.0516 55.1997 19.4658 55.232 19.9496C55.2643 20.4336 55.3234 20.8906 55.4095 21.3208C55.4954 21.7509 55.6192 22.1167 55.7806 22.4178C55.9419 22.7189 56.1516 22.8694 56.4097 22.8694C57.0334 22.8694 57.5121 22.6274 57.8455 22.1435C58.1789 21.6595 58.4316 21.0573 58.6038 20.3368C58.7758 19.6162 58.8995 18.842 58.9748 18.0138C59.0501 17.1857 59.12 16.4275 59.1845 15.7391C59.2274 15.3736 59.3242 15.1423 59.4749 15.0455C59.6255 14.9487 59.7008 14.8788 59.7008 14.8357V14.5454L59.7004 14.5452ZM49.9891 7.51171C49.9891 6.56526 49.5266 5.9254 48.6017 5.59199C47.6767 5.25858 46.3217 5.09187 44.5364 5.09187H43.4717C43.1921 5.09187 42.9071 5.09187 42.6167 5.09187C42.3264 5.09187 42.0306 5.11335 41.7295 5.15648C41.7725 5.22094 41.8318 5.28555 41.9069 5.35001C41.9822 5.41462 42.0521 5.51671 42.1166 5.65644C42.1812 5.79634 42.2348 6.00068 42.2779 6.26948C42.3209 6.53828 42.3424 6.90933 42.3424 7.38247V13.7385C42.3424 13.9105 42.3909 14.0235 42.4876 14.0772C42.5844 14.131 42.9339 14.158 43.5362 14.158C44.0739 14.158 44.7139 13.9698 45.4559 13.5934C46.198 13.2171 46.9024 12.7169 47.5691 12.0931C48.2359 11.4694 48.8058 10.7596 49.2791 9.96369C49.7523 9.16795 49.9889 8.35057 49.9889 7.51171H49.9891ZM48.5372 19.1266C48.5372 18.804 48.3758 18.4598 48.0532 18.0942C47.7306 17.7285 47.3543 17.3844 46.9241 17.0617C46.4939 16.7391 46.0746 16.4756 45.6659 16.2713C45.2573 16.0669 44.9561 15.9648 44.7626 15.9648C44.2679 15.9648 43.7838 15.997 43.3106 16.0616C42.8375 16.126 42.5794 16.1798 42.5364 16.223C42.5149 16.2444 42.4934 16.3627 42.4718 16.5779C42.4503 16.793 42.4288 17.0671 42.4073 17.4006C42.3858 17.734 42.3697 18.0942 42.3589 18.4814C42.3482 18.8686 42.3427 19.245 42.3427 19.6106C42.3427 19.8257 42.3642 20.0677 42.4072 20.3365C42.4501 20.6053 42.5362 20.8634 42.6653 21.1108C42.7944 21.3582 42.9717 21.5679 43.1977 21.7398C43.4236 21.9118 43.7193 21.9979 44.0849 21.9979L44.7302 21.9333C44.9669 21.9333 45.2948 21.8742 45.7142 21.7559C46.1337 21.6377 46.553 21.4602 46.9724 21.2235C47.3917 20.9869 47.7575 20.6912 48.0694 20.3364C48.3813 19.9815 48.5372 19.5781 48.5372 19.1264V19.1266Z" fill="white"/>
</svg>
