<svg width="15" height="17" viewBox="0 0 15 17" fill="none" xmlns="http://www.w3.org/2000/svg">
<path d="M1.76682 16.2191C1.48923 16.2186 1.21656 16.1496 0.975616 16.0189C0.433075 15.7273 0.0957947 15.1612 0.0957947 14.5467V2.11079C0.0957947 1.49456 0.433075 0.930231 0.975616 0.63863C1.22229 0.504166 1.50252 0.435018 1.78701 0.438413C2.0715 0.441807 2.34981 0.51762 2.59284 0.657927L13.7986 7.01997C14.0321 7.15886 14.2246 7.35173 14.3581 7.5805C14.4915 7.80927 14.5615 8.06644 14.5615 8.32788C14.5615 8.58933 14.4915 8.8465 14.3581 9.07527C14.2246 9.30403 14.0321 9.49691 13.7986 9.6358L2.59103 15.9996C2.34232 16.1422 2.05745 16.2181 1.76682 16.2191Z" fill="black"/>
</svg>
